<svg id="Calque_1" data-name="Calque 1" xmlns="http://www.w3.org/2000/svg" viewBox="0 0 51.8 49.5">
  <title>bomb</title>
  <path d="M17.58,49.5a16.79,16.79,0,0,1-6.8-1.4,17.74,17.74,0,0,1-9.35-9.37A17,17,0,0,1,0,31.9a16.78,16.78,0,0,1,1.4-6.8,17.81,17.81,0,0,1,9.35-9.35A17.26,17.26,0,0,1,22.28,15a18.16,18.16,0,0,1,4.2,1.8l4.25-4.25L33,14.75l5.2-5.2,3.1,3.15-5.2,5.2,2.25,2.25L33.68,24.8a19.89,19.89,0,0,1,1.1,3.45,16.79,16.79,0,0,1,.4,3.65,17,17,0,0,1-1.4,6.83A17.67,17.67,0,0,1,24.4,48.1,17,17,0,0,1,17.58,49.5Zm-5-5.75q.7-.65.23-2.2a8.37,8.37,0,0,0-1.87-3.1A7.87,7.87,0,0,0,8,36.38q-1.53-.57-2.23.08t-.25,2.2a8.66,8.66,0,0,0,1.9,3.1,8.2,8.2,0,0,0,2.9,2.1Q11.83,44.45,12.58,43.75Zm7.15-22.6a3,3,0,0,0,1.88-.6,1.74,1.74,0,0,0,0-2.9,3.23,3.23,0,0,0-3.75,0,1.74,1.74,0,0,0,0,2.9A3,3,0,0,0,19.73,21.15ZM34.88,6.7,32,1.85l1.4-.8L36.28,6Zm3.6-1.05V0h1.6V5.65ZM42,6,44.18.85l1.45.65L43.48,6.7Zm2.7,2.15,4.55-3.3.95,1.25L45.63,9.45Zm1.2,7.15,5.35,1.9-.5,1.5-5.35-1.85ZM46,12l5.55-1,.3,1.55-5.55,1Z" transform="translate(-0.03 0)"/>
</svg>
